<svg xmlns="http://www.w3.org/2000/svg" viewBox="0 0 128 128"><polygon points="0 0 0 42.67 42.67 0 0 0" style="fill:#ff1d25"/><polygon points="42.67 0 0 42.67 0 85.33 85.33 0 42.67 0" style="fill:#f15a24"/><polygon points="128 0 85.33 0 0 85.33 0 128 128 0 128 0" style="fill:#ffd226"/><polygon points="128 42.67 128 0 0 128 0 128 42.67 128 128 42.67" style="fill:#8cc63f"/><polygon points="85.33 128 128 85.33 128 42.67 42.67 128 85.33 128" style="fill:#06f"/><polygon points="128 128 128 85.33 85.33 128 128 128" style="fill:#93278f"/><path d="M16,73V97h96V73Zm90,18H22V79h84Z" style="opacity:0.5"/><g style="opacity:0.5"><path d="M16,31V61H46V31ZM40,55H22V37H40Z"/><path d="M28,43h6v6H28Z"/></g><g style="opacity:0.5"><path d="M82,31V61h30V31Zm24,24H88V37h18Z"/><path d="M94,43h6v6H94Z"/></g></svg>