<svg xmlns="http://www.w3.org/2000/svg" viewBox="0 0 128 128"><rect x="54" y="54" width="20" height="20"/><polygon points="81.68 22.68 64 5 63.65 5.35 63.65 5.35 45.97 23.03 49.5 26.57 61.5 14.57 61.5 45 66.5 45 66.5 14.57 78.14 26.21 81.68 22.68"/><polygon points="45 62 14.57 62 26.21 50.36 22.68 46.82 5 64.5 8.54 68.04 8.54 68.03 23.03 82.53 26.57 79 14.57 67 45 67 45 62"/><polygon points="78.39 101.14 66.39 113.14 66.39 82.71 61.4 82.71 61.4 113.14 49.75 101.49 46.22 105.03 63.9 122.71 67.43 119.17 81.93 104.67 78.39 101.14"/><polygon points="122.54 62.85 119.36 59.67 104.86 45.17 101.33 48.71 113.32 60.71 82.89 60.71 82.89 65.71 113.32 65.71 101.68 77.35 105.22 80.88 122.89 63.21 122.54 62.85"/></svg>