<svg xmlns="http://www.w3.org/2000/svg" viewBox="0 0 128 128"><polygon points="107 51 107 74 107 79 102 79 79 79 79 74 102 74 102 51 107 51"/><polygon points="77 21 54 21 49 21 49 26 49 49 54 49 54 26 77 26 77 21"/><line x1="54" y1="26" x2="102" y2="74" style="fill:none;stroke:#000;stroke-miterlimit:10;stroke-width:5px"/><path d="M112,16V84H44V16h68m6-6H38V90h80V10Z"/><line x1="21" y1="12.5" x2="21" y2="87.5" style="fill:none;stroke:#000;stroke-miterlimit:10;stroke-width:5px"/><rect x="10" y="10" width="22" height="5"/><rect x="10" y="85" width="22" height="5"/><line x1="40.5" y1="107" x2="115.5" y2="107" style="fill:none;stroke:#000;stroke-miterlimit:10;stroke-width:5px"/><rect x="38" y="96" width="5" height="22"/><rect x="113" y="96" width="5" height="22"/></svg>