<svg xmlns="http://www.w3.org/2000/svg" viewBox="0 0 128 128"><path d="M46,31H16V61H46ZM40,55H22V37H40Z" style="fill:none"/><polygon points="16 97 64 97 64 91 22 91 22 79 64 79 64 73 16 73 16 97" style="fill:none"/><rect x="28" y="43" width="6" height="6" style="fill:none"/><rect x="22" y="79" width="42" height="12"/><path d="M16,97V73H64V0H0V128H64V97Zm0-66H46V61H16Z"/><path d="M22,55H40V37H22Zm6-12h6v6H28Z"/><rect x="64" y="80" width="16" height="16"/><rect x="80" y="96" width="16" height="16"/><rect x="96" y="112" width="16" height="16"/><rect x="64" y="48" width="16" height="16"/><rect x="80" y="64" width="16" height="16"/><rect x="96" y="80" width="16" height="16"/><rect x="112" y="96" width="16" height="16"/><rect x="64" y="16" width="16" height="16"/><rect x="80" y="32" width="16" height="16"/><rect x="96" y="48" width="16" height="16"/><rect x="80" width="16" height="16"/><rect x="96" y="16" width="16" height="16"/><rect x="112" y="32" width="16" height="16"/><rect x="112" width="16" height="16"/><rect x="112" y="64" width="16" height="16"/><rect x="64" y="112" width="16" height="16"/><path d="M67,4V7h3V4Zm2,2H68V5h1Z"/><path d="M74,4V7h3V4Zm2,2H75V5h1Z"/><path d="M67,9v3H77V9Zm9,2H68V10h8Z"/><path d="M83,4V7h3V4Zm2,2H84V5h1Z" style="fill:#fff"/><path d="M90,4V7h3V4Zm2,2H91V5h1Z" style="fill:#fff"/><path d="M83,9v3H93V9Zm9,2H84V10h8Z" style="fill:#fff"/><path d="M99,4V7h3V4Zm2,2h-1V5h1Z"/><path d="M106,4V7h3V4Zm2,2h-1V5h1Z"/><path d="M99,9v3h10V9Zm9,2h-8V10h8Z"/><path d="M115,4V7h3V4Zm2,2h-1V5h1Z" style="fill:#fff"/><path d="M122,4V7h3V4Zm2,2h-1V5h1Z" style="fill:#fff"/><path d="M115,9v3h10V9Zm9,2h-8V10h8Z" style="fill:#fff"/><path d="M67,20v3h3V20Zm2,2H68V21h1Z" style="fill:#fff"/><path d="M74,20v3h3V20Zm2,2H75V21h1Z" style="fill:#fff"/><path d="M67,25v3H77V25Zm9,2H68V26h8Z" style="fill:#fff"/><path d="M83,20v3h3V20Zm2,2H84V21h1Z"/><path d="M90,20v3h3V20Zm2,2H91V21h1Z"/><path d="M83,25v3H93V25Zm9,2H84V26h8Z"/><path d="M99,20v3h3V20Zm2,2h-1V21h1Z" style="fill:#fff"/><path d="M106,20v3h3V20Zm2,2h-1V21h1Z" style="fill:#fff"/><path d="M99,25v3h10V25Zm9,2h-8V26h8Z" style="fill:#fff"/><path d="M115,20v3h3V20Zm2,2h-1V21h1Z"/><path d="M122,20v3h3V20Zm2,2h-1V21h1Z"/><path d="M115,25v3h10V25Zm9,2h-8V26h8Z"/><path d="M67,36v3h3V36Zm2,2H68V37h1Z"/><path d="M74,36v3h3V36Zm2,2H75V37h1Z"/><path d="M67,41v3H77V41Zm9,2H68V42h8Z"/><path d="M83,36v3h3V36Zm2,2H84V37h1Z" style="fill:#fff"/><path d="M90,36v3h3V36Zm2,2H91V37h1Z" style="fill:#fff"/><path d="M83,41v3H93V41Zm9,2H84V42h8Z" style="fill:#fff"/><path d="M99,36v3h3V36Zm2,2h-1V37h1Z"/><path d="M106,36v3h3V36Zm2,2h-1V37h1Z"/><path d="M99,41v3h10V41Zm9,2h-8V42h8Z"/><path d="M115,36v3h3V36Zm2,2h-1V37h1Z" style="fill:#fff"/><path d="M122,36v3h3V36Zm2,2h-1V37h1Z" style="fill:#fff"/><path d="M115,41v3h10V41Zm9,2h-8V42h8Z" style="fill:#fff"/><path d="M67,52v3h3V52Zm2,2H68V53h1Z" style="fill:#fff"/><path d="M74,52v3h3V52Zm2,2H75V53h1Z" style="fill:#fff"/><path d="M67,57v3H77V57Zm9,2H68V58h8Z" style="fill:#fff"/><path d="M83,52v3h3V52Zm2,2H84V53h1Z"/><path d="M90,52v3h3V52Zm2,2H91V53h1Z"/><path d="M83,57v3H93V57Zm9,2H84V58h8Z"/><path d="M99,52v3h3V52Zm2,2h-1V53h1Z" style="fill:#fff"/><path d="M106,52v3h3V52Zm2,2h-1V53h1Z" style="fill:#fff"/><path d="M99,57v3h10V57Zm9,2h-8V58h8Z" style="fill:#fff"/><path d="M115,52v3h3V52Zm2,2h-1V53h1Z"/><path d="M122,52v3h3V52Zm2,2h-1V53h1Z"/><path d="M115,57v3h10V57Zm9,2h-8V58h8Z"/><path d="M67,68v3h3V68Zm2,2H68V69h1Z"/><path d="M74,68v3h3V68Zm2,2H75V69h1Z"/><path d="M67,73v3H77V73Zm9,2H68V74h8Z"/><path d="M83,68v3h3V68Zm2,2H84V69h1Z" style="fill:#fff"/><path d="M90,68v3h3V68Zm2,2H91V69h1Z" style="fill:#fff"/><path d="M83,73v3H93V73Zm9,2H84V74h8Z" style="fill:#fff"/><path d="M99,68v3h3V68Zm2,2h-1V69h1Z"/><path d="M106,68v3h3V68Zm2,2h-1V69h1Z"/><path d="M99,73v3h10V73Zm9,2h-8V74h8Z"/><path d="M115,68v3h3V68Zm2,2h-1V69h1Z" style="fill:#fff"/><path d="M122,68v3h3V68Zm2,2h-1V69h1Z" style="fill:#fff"/><path d="M115,73v3h10V73Zm9,2h-8V74h8Z" style="fill:#fff"/><path d="M67,84v3h3V84Zm2,2H68V85h1Z" style="fill:#fff"/><path d="M74,84v3h3V84Zm2,2H75V85h1Z" style="fill:#fff"/><path d="M67,89v3H77V89Zm9,2H68V90h8Z" style="fill:#fff"/><path d="M83,84v3h3V84Zm2,2H84V85h1Z"/><path d="M90,84v3h3V84Zm2,2H91V85h1Z"/><path d="M83,89v3H93V89Zm9,2H84V90h8Z"/><path d="M99,84v3h3V84Zm2,2h-1V85h1Z" style="fill:#fff"/><path d="M106,84v3h3V84Zm2,2h-1V85h1Z" style="fill:#fff"/><path d="M99,89v3h10V89Zm9,2h-8V90h8Z" style="fill:#fff"/><path d="M115,84v3h3V84Zm2,2h-1V85h1Z"/><path d="M122,84v3h3V84Zm2,2h-1V85h1Z"/><path d="M115,89v3h10V89Zm9,2h-8V90h8Z"/><path d="M67,100v3h3v-3Zm2,2H68v-1h1Z"/><path d="M74,100v3h3v-3Zm2,2H75v-1h1Z"/><path d="M67,105v3H77v-3Zm9,2H68v-1h8Z"/><path d="M83,100v3h3v-3Zm2,2H84v-1h1Z" style="fill:#fff"/><path d="M90,100v3h3v-3Zm2,2H91v-1h1Z" style="fill:#fff"/><path d="M83,105v3H93v-3Zm9,2H84v-1h8Z" style="fill:#fff"/><path d="M99,100v3h3v-3Zm2,2h-1v-1h1Z"/><path d="M106,100v3h3v-3Zm2,2h-1v-1h1Z"/><path d="M99,105v3h10v-3Zm9,2h-8v-1h8Z"/><path d="M115,100v3h3v-3Zm2,2h-1v-1h1Z" style="fill:#fff"/><path d="M122,100v3h3v-3Zm2,2h-1v-1h1Z" style="fill:#fff"/><path d="M115,105v3h10v-3Zm9,2h-8v-1h8Z" style="fill:#fff"/><path d="M67,116v3h3v-3Zm2,2H68v-1h1Z" style="fill:#fff"/><path d="M74,116v3h3v-3Zm2,2H75v-1h1Z" style="fill:#fff"/><path d="M67,121v3H77v-3Zm9,2H68v-1h8Z" style="fill:#fff"/><path d="M83,116v3h3v-3Zm2,2H84v-1h1Z"/><path d="M90,116v3h3v-3Zm2,2H91v-1h1Z"/><path d="M83,121v3H93v-3Zm9,2H84v-1h8Z"/><path d="M99,116v3h3v-3Zm2,2h-1v-1h1Z" style="fill:#fff"/><path d="M106,116v3h3v-3Zm2,2h-1v-1h1Z" style="fill:#fff"/><path d="M99,121v3h10v-3Zm9,2h-8v-1h8Z" style="fill:#fff"/><path d="M115,116v3h3v-3Zm2,2h-1v-1h1Z"/><path d="M122,116v3h3v-3Zm2,2h-1v-1h1Z"/><path d="M115,121v3h10v-3Zm9,2h-8v-1h8Z"/></svg>