<svg xmlns="http://www.w3.org/2000/svg" viewBox="0 0 128 128"><rect x="54" y="54" width="20" height="20"/><polygon points="44.2 24.8 60.46 8.54 64 5 67.54 8.54 83.8 24.8 80.26 28.34 64 12.07 47.74 28.34 44.2 24.8"/><line x1="64" y1="12.07" x2="64" y2="44.6" style="fill:none;stroke:#000;stroke-miterlimit:10;stroke-width:5px"/><polygon points="24.8 83.8 8.54 67.54 5 64 8.54 60.46 24.8 44.2 28.34 47.74 12.07 64 28.34 80.26 24.8 83.8"/><line x1="12.07" y1="64" x2="44.6" y2="64" style="fill:none;stroke:#000;stroke-miterlimit:10;stroke-width:5px"/><polygon points="103.2 83.8 119.46 67.54 123 64 119.46 60.46 103.2 44.2 99.67 47.74 115.93 64 99.67 80.26 103.2 83.8"/><line x1="115.93" y1="64" x2="83.4" y2="64" style="fill:none;stroke:#000;stroke-miterlimit:10;stroke-width:5px"/><polygon points="44.2 103.2 60.46 119.46 64 123 67.54 119.46 83.8 103.2 80.26 99.67 64 115.93 47.74 99.67 44.2 103.2"/><line x1="64" y1="115.93" x2="64" y2="83.4" style="fill:none;stroke:#000;stroke-miterlimit:10;stroke-width:5px"/></svg>