<svg xmlns="http://www.w3.org/2000/svg" viewBox="0 0 128 128"><rect x="54" y="54" width="20" height="20"/><polygon points="46.5 5 46.5 10 61.5 10 61.5 44 66.5 44 66.5 10 81.5 10 81.5 5 46.5 5" style="opacity:0.6"/><polygon points="10 61.5 10 46.5 5 46.5 5 81.5 10 81.5 10 66.5 44 66.5 44 61.5 10 61.5" style="opacity:0.6"/><polygon points="66.5 118 66.5 84 61.5 84 61.5 118 46.5 118 46.5 123 81.5 123 81.5 118 66.5 118" style="opacity:0.6"/><polygon points="118 46.5 118 61.5 84 61.5 84 66.5 118 66.5 118 81.5 123 81.5 123 46.5 118 46.5"/></svg>