<svg xmlns="http://www.w3.org/2000/svg" viewBox="0 0 128 128"><polygon points="33 5 10 5 5 5 5 10 5 33 10 33 10 10 33 10 33 5"/><line x1="10" y1="10" x2="33" y2="33" style="fill:none;stroke:#000;stroke-miterlimit:10;stroke-width:5px"/><polygon points="95 5 118 5 123 5 123 10 123 33 118 33 118 10 95 10 95 5"/><line x1="118" y1="10" x2="95" y2="33" style="fill:none;stroke:#000;stroke-miterlimit:10;stroke-width:5px"/><path d="M36.5,41.5v20h20v-20Zm15,15h-10v-10h10Z"/><path d="M71.5,41.5v20h20v-20Zm15,15h-10v-10h10Z"/><path d="M36.5,66.5v20h55v-20Zm50,15h-45v-10h45Z"/><polygon points="33 123 10 123 5 123 5 118 5 95 10 95 10 118 33 118 33 123"/><line x1="10" y1="118" x2="33" y2="95" style="fill:none;stroke:#000;stroke-miterlimit:10;stroke-width:5px"/><polygon points="95 123 118 123 123 123 123 118 123 95 118 95 118 118 95 118 95 123"/><line x1="118" y1="118" x2="95" y2="95" style="fill:none;stroke:#000;stroke-miterlimit:10;stroke-width:5px"/></svg>