<svg xmlns="http://www.w3.org/2000/svg" viewBox="0 0 128 128"><rect y="16" width="16" height="16"/><rect x="16" y="32" width="16" height="16"/><rect x="32" y="48" width="16" height="16"/><rect x="48" y="64" width="16" height="16"/><rect x="64" y="80" width="16" height="16"/><rect x="80" y="96" width="16" height="16"/><rect x="96" y="112" width="16" height="16"/><rect x="16" width="16" height="16"/><rect x="32" y="16" width="16" height="16"/><rect x="48" y="32" width="16" height="16"/><rect x="64" y="48" width="16" height="16"/><rect x="80" y="64" width="16" height="16"/><rect x="96" y="80" width="16" height="16"/><rect x="112" y="96" width="16" height="16"/><rect x="48" width="16" height="16"/><rect x="64" y="16" width="16" height="16"/><rect x="80" y="32" width="16" height="16"/><rect x="96" y="48" width="16" height="16"/><rect x="80" width="16" height="16"/><rect x="96" y="16" width="16" height="16"/><rect x="112" y="32" width="16" height="16"/><rect x="112" width="16" height="16"/><rect x="112" y="64" width="16" height="16"/><rect y="80" width="16" height="16"/><rect x="16" y="96" width="16" height="16"/><rect x="32" y="112" width="16" height="16"/><rect x="32" y="80" width="16" height="16"/><rect x="48" y="96" width="16" height="16"/><rect y="112" width="16" height="16"/><rect x="64" y="112" width="16" height="16"/><rect x="16" y="64" width="16" height="16"/><rect y="48" width="16" height="16"/><path d="M3,4V7H6V4ZM5,6H4V5H5Z"/><path d="M10,4V7h3V4Zm2,2H11V5h1Z"/><path d="M3,9v3H13V9Zm9,2H4V10h8Z"/><path d="M19,4V7h3V4Zm2,2H20V5h1Z" style="fill:#fff"/><path d="M26,4V7h3V4Zm2,2H27V5h1Z" style="fill:#fff"/><path d="M19,9v3H29V9Zm9,2H20V10h8Z" style="fill:#fff"/><path d="M35,4V7h3V4Zm2,2H36V5h1Z"/><path d="M42,4V7h3V4Zm2,2H43V5h1Z"/><path d="M35,9v3H45V9Zm9,2H36V10h8Z"/><path d="M51,4V7h3V4Zm2,2H52V5h1Z" style="fill:#fff"/><path d="M58,4V7h3V4Zm2,2H59V5h1Z" style="fill:#fff"/><path d="M51,9v3H61V9Zm9,2H52V10h8Z" style="fill:#fff"/><path d="M67,4V7h3V4Zm2,2H68V5h1Z"/><path d="M74,4V7h3V4Zm2,2H75V5h1Z"/><path d="M67,9v3H77V9Zm9,2H68V10h8Z"/><path d="M83,4V7h3V4Zm2,2H84V5h1Z" style="fill:#fff"/><path d="M90,4V7h3V4Zm2,2H91V5h1Z" style="fill:#fff"/><path d="M83,9v3H93V9Zm9,2H84V10h8Z" style="fill:#fff"/><path d="M99,4V7h3V4Zm2,2h-1V5h1Z"/><path d="M106,4V7h3V4Zm2,2h-1V5h1Z"/><path d="M99,9v3h10V9Zm9,2h-8V10h8Z"/><path d="M115,4V7h3V4Zm2,2h-1V5h1Z" style="fill:#fff"/><path d="M122,4V7h3V4Zm2,2h-1V5h1Z" style="fill:#fff"/><path d="M115,9v3h10V9Zm9,2h-8V10h8Z" style="fill:#fff"/><path d="M3,20v3H6V20Zm2,2H4V21H5Z" style="fill:#fff"/><path d="M10,20v3h3V20Zm2,2H11V21h1Z" style="fill:#fff"/><path d="M3,25v3H13V25Zm9,2H4V26h8Z" style="fill:#fff"/><path d="M19,20v3h3V20Zm2,2H20V21h1Z"/><path d="M26,20v3h3V20Zm2,2H27V21h1Z"/><path d="M19,25v3H29V25Zm9,2H20V26h8Z"/><path d="M35,20v3h3V20Zm2,2H36V21h1Z" style="fill:#fff"/><path d="M42,20v3h3V20Zm2,2H43V21h1Z" style="fill:#fff"/><path d="M35,25v3H45V25Zm9,2H36V26h8Z" style="fill:#fff"/><path d="M51,20v3h3V20Zm2,2H52V21h1Z"/><path d="M58,20v3h3V20Zm2,2H59V21h1Z"/><path d="M51,25v3H61V25Zm9,2H52V26h8Z"/><path d="M67,20v3h3V20Zm2,2H68V21h1Z" style="fill:#fff"/><path d="M74,20v3h3V20Zm2,2H75V21h1Z" style="fill:#fff"/><path d="M67,25v3H77V25Zm9,2H68V26h8Z" style="fill:#fff"/><path d="M83,20v3h3V20Zm2,2H84V21h1Z"/><path d="M90,20v3h3V20Zm2,2H91V21h1Z"/><path d="M83,25v3H93V25Zm9,2H84V26h8Z"/><path d="M99,20v3h3V20Zm2,2h-1V21h1Z" style="fill:#fff"/><path d="M106,20v3h3V20Zm2,2h-1V21h1Z" style="fill:#fff"/><path d="M99,25v3h10V25Zm9,2h-8V26h8Z" style="fill:#fff"/><path d="M115,20v3h3V20Zm2,2h-1V21h1Z"/><path d="M122,20v3h3V20Zm2,2h-1V21h1Z"/><path d="M115,25v3h10V25Zm9,2h-8V26h8Z"/><path d="M3,36v3H6V36Zm2,2H4V37H5Z"/><path d="M10,36v3h3V36Zm2,2H11V37h1Z"/><path d="M3,41v3H13V41Zm9,2H4V42h8Z"/><path d="M19,36v3h3V36Zm2,2H20V37h1Z" style="fill:#fff"/><path d="M26,36v3h3V36Zm2,2H27V37h1Z" style="fill:#fff"/><path d="M19,41v3H29V41Zm9,2H20V42h8Z" style="fill:#fff"/><path d="M35,36v3h3V36Zm2,2H36V37h1Z"/><path d="M42,36v3h3V36Zm2,2H43V37h1Z"/><path d="M35,41v3H45V41Zm9,2H36V42h8Z"/><path d="M51,36v3h3V36Zm2,2H52V37h1Z" style="fill:#fff"/><path d="M58,36v3h3V36Zm2,2H59V37h1Z" style="fill:#fff"/><path d="M51,41v3H61V41Zm9,2H52V42h8Z" style="fill:#fff"/><path d="M67,36v3h3V36Zm2,2H68V37h1Z"/><path d="M74,36v3h3V36Zm2,2H75V37h1Z"/><path d="M67,41v3H77V41Zm9,2H68V42h8Z"/><path d="M83,36v3h3V36Zm2,2H84V37h1Z" style="fill:#fff"/><path d="M90,36v3h3V36Zm2,2H91V37h1Z" style="fill:#fff"/><path d="M83,41v3H93V41Zm9,2H84V42h8Z" style="fill:#fff"/><path d="M99,36v3h3V36Zm2,2h-1V37h1Z"/><path d="M106,36v3h3V36Zm2,2h-1V37h1Z"/><path d="M99,41v3h10V41Zm9,2h-8V42h8Z"/><path d="M115,36v3h3V36Zm2,2h-1V37h1Z" style="fill:#fff"/><path d="M122,36v3h3V36Zm2,2h-1V37h1Z" style="fill:#fff"/><path d="M115,41v3h10V41Zm9,2h-8V42h8Z" style="fill:#fff"/><path d="M3,52v3H6V52Zm2,2H4V53H5Z" style="fill:#fff"/><path d="M10,52v3h3V52Zm2,2H11V53h1Z" style="fill:#fff"/><path d="M3,57v3H13V57Zm9,2H4V58h8Z" style="fill:#fff"/><path d="M19,52v3h3V52Zm2,2H20V53h1Z"/><path d="M26,52v3h3V52Zm2,2H27V53h1Z"/><path d="M19,57v3H29V57Zm9,2H20V58h8Z"/><path d="M35,52v3h3V52Zm2,2H36V53h1Z" style="fill:#fff"/><path d="M42,52v3h3V52Zm2,2H43V53h1Z" style="fill:#fff"/><path d="M35,57v3H45V57Zm9,2H36V58h8Z" style="fill:#fff"/><path d="M51,52v3h3V52Zm2,2H52V53h1Z"/><path d="M58,52v3h3V52Zm2,2H59V53h1Z"/><path d="M51,57v3H61V57Zm9,2H52V58h8Z"/><path d="M67,52v3h3V52Zm2,2H68V53h1Z" style="fill:#fff"/><path d="M74,52v3h3V52Zm2,2H75V53h1Z" style="fill:#fff"/><path d="M67,57v3H77V57Zm9,2H68V58h8Z" style="fill:#fff"/><path d="M83,52v3h3V52Zm2,2H84V53h1Z"/><path d="M90,52v3h3V52Zm2,2H91V53h1Z"/><path d="M83,57v3H93V57Zm9,2H84V58h8Z"/><path d="M99,52v3h3V52Zm2,2h-1V53h1Z" style="fill:#fff"/><path d="M106,52v3h3V52Zm2,2h-1V53h1Z" style="fill:#fff"/><path d="M99,57v3h10V57Zm9,2h-8V58h8Z" style="fill:#fff"/><path d="M115,52v3h3V52Zm2,2h-1V53h1Z"/><path d="M122,52v3h3V52Zm2,2h-1V53h1Z"/><path d="M115,57v3h10V57Zm9,2h-8V58h8Z"/><path d="M3,68v3H6V68Zm2,2H4V69H5Z"/><path d="M10,68v3h3V68Zm2,2H11V69h1Z"/><path d="M3,73v3H13V73Zm9,2H4V74h8Z"/><path d="M19,68v3h3V68Zm2,2H20V69h1Z" style="fill:#fff"/><path d="M26,68v3h3V68Zm2,2H27V69h1Z" style="fill:#fff"/><path d="M19,73v3H29V73Zm9,2H20V74h8Z" style="fill:#fff"/><path d="M35,68v3h3V68Zm2,2H36V69h1Z"/><path d="M42,68v3h3V68Zm2,2H43V69h1Z"/><path d="M35,73v3H45V73Zm9,2H36V74h8Z"/><path d="M51,68v3h3V68Zm2,2H52V69h1Z" style="fill:#fff"/><path d="M58,68v3h3V68Zm2,2H59V69h1Z" style="fill:#fff"/><path d="M51,73v3H61V73Zm9,2H52V74h8Z" style="fill:#fff"/><path d="M67,68v3h3V68Zm2,2H68V69h1Z"/><path d="M74,68v3h3V68Zm2,2H75V69h1Z"/><path d="M67,73v3H77V73Zm9,2H68V74h8Z"/><path d="M83,68v3h3V68Zm2,2H84V69h1Z" style="fill:#fff"/><path d="M90,68v3h3V68Zm2,2H91V69h1Z" style="fill:#fff"/><path d="M83,73v3H93V73Zm9,2H84V74h8Z" style="fill:#fff"/><path d="M99,68v3h3V68Zm2,2h-1V69h1Z"/><path d="M106,68v3h3V68Zm2,2h-1V69h1Z"/><path d="M99,73v3h10V73Zm9,2h-8V74h8Z"/><path d="M115,68v3h3V68Zm2,2h-1V69h1Z" style="fill:#fff"/><path d="M122,68v3h3V68Zm2,2h-1V69h1Z" style="fill:#fff"/><path d="M115,73v3h10V73Zm9,2h-8V74h8Z" style="fill:#fff"/><path d="M3,84v3H6V84Zm2,2H4V85H5Z" style="fill:#fff"/><path d="M10,84v3h3V84Zm2,2H11V85h1Z" style="fill:#fff"/><path d="M3,89v3H13V89Zm9,2H4V90h8Z" style="fill:#fff"/><path d="M19,84v3h3V84Zm2,2H20V85h1Z"/><path d="M26,84v3h3V84Zm2,2H27V85h1Z"/><path d="M19,89v3H29V89Zm9,2H20V90h8Z"/><path d="M35,84v3h3V84Zm2,2H36V85h1Z" style="fill:#fff"/><path d="M42,84v3h3V84Zm2,2H43V85h1Z" style="fill:#fff"/><path d="M35,89v3H45V89Zm9,2H36V90h8Z" style="fill:#fff"/><path d="M51,84v3h3V84Zm2,2H52V85h1Z"/><path d="M58,84v3h3V84Zm2,2H59V85h1Z"/><path d="M51,89v3H61V89Zm9,2H52V90h8Z"/><path d="M67,84v3h3V84Zm2,2H68V85h1Z" style="fill:#fff"/><path d="M74,84v3h3V84Zm2,2H75V85h1Z" style="fill:#fff"/><path d="M67,89v3H77V89Zm9,2H68V90h8Z" style="fill:#fff"/><path d="M83,84v3h3V84Zm2,2H84V85h1Z"/><path d="M90,84v3h3V84Zm2,2H91V85h1Z"/><path d="M83,89v3H93V89Zm9,2H84V90h8Z"/><path d="M99,84v3h3V84Zm2,2h-1V85h1Z" style="fill:#fff"/><path d="M106,84v3h3V84Zm2,2h-1V85h1Z" style="fill:#fff"/><path d="M99,89v3h10V89Zm9,2h-8V90h8Z" style="fill:#fff"/><path d="M115,84v3h3V84Zm2,2h-1V85h1Z"/><path d="M122,84v3h3V84Zm2,2h-1V85h1Z"/><path d="M115,89v3h10V89Zm9,2h-8V90h8Z"/><path d="M3,100v3H6v-3Zm2,2H4v-1H5Z"/><path d="M10,100v3h3v-3Zm2,2H11v-1h1Z"/><path d="M3,105v3H13v-3Zm9,2H4v-1h8Z"/><path d="M19,100v3h3v-3Zm2,2H20v-1h1Z" style="fill:#fff"/><path d="M26,100v3h3v-3Zm2,2H27v-1h1Z" style="fill:#fff"/><path d="M19,105v3H29v-3Zm9,2H20v-1h8Z" style="fill:#fff"/><path d="M35,100v3h3v-3Zm2,2H36v-1h1Z"/><path d="M42,100v3h3v-3Zm2,2H43v-1h1Z"/><path d="M35,105v3H45v-3Zm9,2H36v-1h8Z"/><path d="M51,100v3h3v-3Zm2,2H52v-1h1Z" style="fill:#fff"/><path d="M58,100v3h3v-3Zm2,2H59v-1h1Z" style="fill:#fff"/><path d="M51,105v3H61v-3Zm9,2H52v-1h8Z" style="fill:#fff"/><path d="M67,100v3h3v-3Zm2,2H68v-1h1Z"/><path d="M74,100v3h3v-3Zm2,2H75v-1h1Z"/><path d="M67,105v3H77v-3Zm9,2H68v-1h8Z"/><path d="M83,100v3h3v-3Zm2,2H84v-1h1Z" style="fill:#fff"/><path d="M90,100v3h3v-3Zm2,2H91v-1h1Z" style="fill:#fff"/><path d="M83,105v3H93v-3Zm9,2H84v-1h8Z" style="fill:#fff"/><path d="M99,100v3h3v-3Zm2,2h-1v-1h1Z"/><path d="M106,100v3h3v-3Zm2,2h-1v-1h1Z"/><path d="M99,105v3h10v-3Zm9,2h-8v-1h8Z"/><path d="M115,100v3h3v-3Zm2,2h-1v-1h1Z" style="fill:#fff"/><path d="M122,100v3h3v-3Zm2,2h-1v-1h1Z" style="fill:#fff"/><path d="M115,105v3h10v-3Zm9,2h-8v-1h8Z" style="fill:#fff"/><path d="M3,116v3H6v-3Zm2,2H4v-1H5Z" style="fill:#fff"/><path d="M10,116v3h3v-3Zm2,2H11v-1h1Z" style="fill:#fff"/><path d="M3,121v3H13v-3Zm9,2H4v-1h8Z" style="fill:#fff"/><path d="M19,116v3h3v-3Zm2,2H20v-1h1Z"/><path d="M26,116v3h3v-3Zm2,2H27v-1h1Z"/><path d="M19,121v3H29v-3Zm9,2H20v-1h8Z"/><path d="M35,116v3h3v-3Zm2,2H36v-1h1Z" style="fill:#fff"/><path d="M42,116v3h3v-3Zm2,2H43v-1h1Z" style="fill:#fff"/><path d="M35,121v3H45v-3Zm9,2H36v-1h8Z" style="fill:#fff"/><path d="M51,116v3h3v-3Zm2,2H52v-1h1Z"/><path d="M58,116v3h3v-3Zm2,2H59v-1h1Z"/><path d="M51,121v3H61v-3Zm9,2H52v-1h8Z"/><path d="M67,116v3h3v-3Zm2,2H68v-1h1Z" style="fill:#fff"/><path d="M74,116v3h3v-3Zm2,2H75v-1h1Z" style="fill:#fff"/><path d="M67,121v3H77v-3Zm9,2H68v-1h8Z" style="fill:#fff"/><path d="M83,116v3h3v-3Zm2,2H84v-1h1Z"/><path d="M90,116v3h3v-3Zm2,2H91v-1h1Z"/><path d="M83,121v3H93v-3Zm9,2H84v-1h8Z"/><path d="M99,116v3h3v-3Zm2,2h-1v-1h1Z" style="fill:#fff"/><path d="M106,116v3h3v-3Zm2,2h-1v-1h1Z" style="fill:#fff"/><path d="M99,121v3h10v-3Zm9,2h-8v-1h8Z" style="fill:#fff"/><path d="M115,116v3h3v-3Zm2,2h-1v-1h1Z"/><path d="M122,116v3h3v-3Zm2,2h-1v-1h1Z"/><path d="M115,121v3h10v-3Zm9,2h-8v-1h8Z"/></svg>